<?xml version="1.0" encoding="utf-8" standalone="no"?>
<!DOCTYPE svg PUBLIC "-//W3C//DTD SVG 1.1//EN"
  "http://www.w3.org/Graphics/SVG/1.1/DTD/svg11.dtd">
<svg xmlns:xlink="http://www.w3.org/1999/xlink" width="720pt" height="432pt" viewBox="0 0 720 432" xmlns="http://www.w3.org/2000/svg" version="1.1">
 <metadata>
  <rdf:RDF xmlns:dc="http://purl.org/dc/elements/1.1/" xmlns:cc="http://creativecommons.org/ns#" xmlns:rdf="http://www.w3.org/1999/02/22-rdf-syntax-ns#">
   <cc:Work>
    <dc:type rdf:resource="http://purl.org/dc/dcmitype/StillImage"/>
    <dc:date>2024-01-01T16:24:52.657982</dc:date>
    <dc:format>image/svg+xml</dc:format>
    <dc:creator>
     <cc:Agent>
      <dc:title>Matplotlib v3.8.0, https://matplotlib.org/</dc:title>
     </cc:Agent>
    </dc:creator>
   </cc:Work>
  </rdf:RDF>
 </metadata>
 <defs>
  <style type="text/css">*{stroke-linejoin: round; stroke-linecap: butt}</style>
 </defs>
 <g id="figure_1">
  <g id="patch_1">
   <path d="M 0 432 
L 720 432 
L 720 0 
L 0 0 
z
" style="fill: #ffffff"/>
  </g>
  <g id="axes_1">
   <g id="patch_2">
    <path d="M 90 384.48 
L 648 384.48 
L 648 51.84 
L 90 51.84 
z
" style="fill: #ffffff"/>
   </g>
   <g id="patch_3">
    <path d="M 115.363636 384.48 
L 116.950103 384.48 
L 116.950103 67.68 
L 115.363636 67.68 
z
" clip-path="url(#p1791707978)" style="fill: #1f77b4"/>
   </g>
   <g id="patch_4">
    <path d="M 117.34672 384.48 
L 118.933186 384.48 
L 118.933186 86.189273 
L 117.34672 86.189273 
z
" clip-path="url(#p1791707978)" style="fill: #1f77b4"/>
   </g>
   <g id="patch_5">
    <path d="M 119.329803 384.48 
L 120.91627 384.48 
L 120.91627 114.947162 
L 119.329803 114.947162 
z
" clip-path="url(#p1791707978)" style="fill: #1f77b4"/>
   </g>
   <g id="patch_6">
    <path d="M 121.312886 384.48 
L 122.899353 384.48 
L 122.899353 122.879708 
L 121.312886 122.879708 
z
" clip-path="url(#p1791707978)" style="fill: #1f77b4"/>
   </g>
   <g id="patch_7">
    <path d="M 123.29597 384.48 
L 124.882437 384.48 
L 124.882437 126.488919 
L 123.29597 126.488919 
z
" clip-path="url(#p1791707978)" style="fill: #1f77b4"/>
   </g>
   <g id="patch_8">
    <path d="M 125.279053 384.48 
L 126.86552 384.48 
L 126.86552 133.224828 
L 125.279053 133.224828 
z
" clip-path="url(#p1791707978)" style="fill: #1f77b4"/>
   </g>
   <g id="patch_9">
    <path d="M 127.262137 384.48 
L 128.848603 384.48 
L 128.848603 135.270691 
L 127.262137 135.270691 
z
" clip-path="url(#p1791707978)" style="fill: #1f77b4"/>
   </g>
   <g id="patch_10">
    <path d="M 129.24522 384.48 
L 130.831687 384.48 
L 130.831687 149.109219 
L 129.24522 149.109219 
z
" clip-path="url(#p1791707978)" style="fill: #1f77b4"/>
   </g>
   <g id="patch_11">
    <path d="M 131.228303 384.48 
L 132.81477 384.48 
L 132.81477 157.196169 
L 131.228303 157.196169 
z
" clip-path="url(#p1791707978)" style="fill: #1f77b4"/>
   </g>
   <g id="patch_12">
    <path d="M 133.211387 384.48 
L 134.797853 384.48 
L 134.797853 163.777673 
L 133.211387 163.777673 
z
" clip-path="url(#p1791707978)" style="fill: #1f77b4"/>
   </g>
   <g id="patch_13">
    <path d="M 135.19447 384.48 
L 136.780937 384.48 
L 136.780937 164.877807 
L 135.19447 164.877807 
z
" clip-path="url(#p1791707978)" style="fill: #1f77b4"/>
   </g>
   <g id="patch_14">
    <path d="M 137.177553 384.48 
L 138.76402 384.48 
L 138.76402 166.962271 
L 137.177553 166.962271 
z
" clip-path="url(#p1791707978)" style="fill: #1f77b4"/>
   </g>
   <g id="patch_15">
    <path d="M 139.160637 384.48 
L 140.747104 384.48 
L 140.747104 170.011766 
L 139.160637 170.011766 
z
" clip-path="url(#p1791707978)" style="fill: #1f77b4"/>
   </g>
   <g id="patch_16">
    <path d="M 141.14372 384.48 
L 142.730187 384.48 
L 142.730187 170.629385 
L 141.14372 170.629385 
z
" clip-path="url(#p1791707978)" style="fill: #1f77b4"/>
   </g>
   <g id="patch_17">
    <path d="M 143.126804 384.48 
L 144.71327 384.48 
L 144.71327 174.740412 
L 143.126804 174.740412 
z
" clip-path="url(#p1791707978)" style="fill: #1f77b4"/>
   </g>
   <g id="patch_18">
    <path d="M 145.109887 384.48 
L 146.696354 384.48 
L 146.696354 175.087823 
L 145.109887 175.087823 
z
" clip-path="url(#p1791707978)" style="fill: #1f77b4"/>
   </g>
   <g id="patch_19">
    <path d="M 147.09297 384.48 
L 148.679437 384.48 
L 148.679437 178.060115 
L 147.09297 178.060115 
z
" clip-path="url(#p1791707978)" style="fill: #1f77b4"/>
   </g>
   <g id="patch_20">
    <path d="M 149.076054 384.48 
L 150.66252 384.48 
L 150.66252 178.388225 
L 149.076054 178.388225 
z
" clip-path="url(#p1791707978)" style="fill: #1f77b4"/>
   </g>
   <g id="patch_21">
    <path d="M 151.059137 384.48 
L 152.645604 384.48 
L 152.645604 183.290576 
L 151.059137 183.290576 
z
" clip-path="url(#p1791707978)" style="fill: #1f77b4"/>
   </g>
   <g id="patch_22">
    <path d="M 153.04222 384.48 
L 154.628687 384.48 
L 154.628687 183.329178 
L 153.04222 183.329178 
z
" clip-path="url(#p1791707978)" style="fill: #1f77b4"/>
   </g>
   <g id="patch_23">
    <path d="M 155.025304 384.48 
L 156.611771 384.48 
L 156.611771 183.966097 
L 155.025304 183.966097 
z
" clip-path="url(#p1791707978)" style="fill: #1f77b4"/>
   </g>
   <g id="patch_24">
    <path d="M 157.008387 384.48 
L 158.594854 384.48 
L 158.594854 184.757422 
L 157.008387 184.757422 
z
" clip-path="url(#p1791707978)" style="fill: #1f77b4"/>
   </g>
   <g id="patch_25">
    <path d="M 158.991471 384.48 
L 160.577937 384.48 
L 160.577937 186.938389 
L 158.991471 186.938389 
z
" clip-path="url(#p1791707978)" style="fill: #1f77b4"/>
   </g>
   <g id="patch_26">
    <path d="M 160.974554 384.48 
L 162.561021 384.48 
L 162.561021 188.540339 
L 160.974554 188.540339 
z
" clip-path="url(#p1791707978)" style="fill: #1f77b4"/>
   </g>
   <g id="patch_27">
    <path d="M 162.957637 384.48 
L 164.544104 384.48 
L 164.544104 189.736976 
L 162.957637 189.736976 
z
" clip-path="url(#p1791707978)" style="fill: #1f77b4"/>
   </g>
   <g id="patch_28">
    <path d="M 164.940721 384.48 
L 166.527187 384.48 
L 166.527187 189.910681 
L 164.940721 189.910681 
z
" clip-path="url(#p1791707978)" style="fill: #1f77b4"/>
   </g>
   <g id="patch_29">
    <path d="M 166.923804 384.48 
L 168.510271 384.48 
L 168.510271 191.995146 
L 166.923804 191.995146 
z
" clip-path="url(#p1791707978)" style="fill: #1f77b4"/>
   </g>
   <g id="patch_30">
    <path d="M 168.906887 384.48 
L 170.493354 384.48 
L 170.493354 192.767169 
L 168.906887 192.767169 
z
" clip-path="url(#p1791707978)" style="fill: #1f77b4"/>
   </g>
   <g id="patch_31">
    <path d="M 170.889971 384.48 
L 172.476438 384.48 
L 172.476438 195.083241 
L 170.889971 195.083241 
z
" clip-path="url(#p1791707978)" style="fill: #1f77b4"/>
   </g>
   <g id="patch_32">
    <path d="M 172.873054 384.48 
L 174.459521 384.48 
L 174.459521 198.26784 
L 172.873054 198.26784 
z
" clip-path="url(#p1791707978)" style="fill: #1f77b4"/>
   </g>
   <g id="patch_33">
    <path d="M 174.856138 384.48 
L 176.442604 384.48 
L 176.442604 199.676783 
L 174.856138 199.676783 
z
" clip-path="url(#p1791707978)" style="fill: #1f77b4"/>
   </g>
   <g id="patch_34">
    <path d="M 176.839221 384.48 
L 178.425688 384.48 
L 178.425688 199.792587 
L 176.839221 199.792587 
z
" clip-path="url(#p1791707978)" style="fill: #1f77b4"/>
   </g>
   <g id="patch_35">
    <path d="M 178.822304 384.48 
L 180.408771 384.48 
L 180.408771 200.004893 
L 178.822304 200.004893 
z
" clip-path="url(#p1791707978)" style="fill: #1f77b4"/>
   </g>
   <g id="patch_36">
    <path d="M 180.805388 384.48 
L 182.391854 384.48 
L 182.391854 202.378867 
L 180.805388 202.378867 
z
" clip-path="url(#p1791707978)" style="fill: #1f77b4"/>
   </g>
   <g id="patch_37">
    <path d="M 182.788471 384.48 
L 184.374938 384.48 
L 184.374938 202.552572 
L 182.788471 202.552572 
z
" clip-path="url(#p1791707978)" style="fill: #1f77b4"/>
   </g>
   <g id="patch_38">
    <path d="M 184.771554 384.48 
L 186.358021 384.48 
L 186.358021 203.575504 
L 184.771554 203.575504 
z
" clip-path="url(#p1791707978)" style="fill: #1f77b4"/>
   </g>
   <g id="patch_39">
    <path d="M 186.754638 384.48 
L 188.341105 384.48 
L 188.341105 206.219686 
L 186.754638 206.219686 
z
" clip-path="url(#p1791707978)" style="fill: #1f77b4"/>
   </g>
   <g id="patch_40">
    <path d="M 188.737721 384.48 
L 190.324188 384.48 
L 190.324188 209.481487 
L 188.737721 209.481487 
z
" clip-path="url(#p1791707978)" style="fill: #1f77b4"/>
   </g>
   <g id="patch_41">
    <path d="M 190.720805 384.48 
L 192.307271 384.48 
L 192.307271 210.195609 
L 190.720805 210.195609 
z
" clip-path="url(#p1791707978)" style="fill: #1f77b4"/>
   </g>
   <g id="patch_42">
    <path d="M 192.703888 384.48 
L 194.290355 384.48 
L 194.290355 212.16427 
L 192.703888 212.16427 
z
" clip-path="url(#p1791707978)" style="fill: #1f77b4"/>
   </g>
   <g id="patch_43">
    <path d="M 194.686971 384.48 
L 196.273438 384.48 
L 196.273438 213.901323 
L 194.686971 213.901323 
z
" clip-path="url(#p1791707978)" style="fill: #1f77b4"/>
   </g>
   <g id="patch_44">
    <path d="M 196.670055 384.48 
L 198.256521 384.48 
L 198.256521 214.654047 
L 196.670055 214.654047 
z
" clip-path="url(#p1791707978)" style="fill: #1f77b4"/>
   </g>
   <g id="patch_45">
    <path d="M 198.653138 384.48 
L 200.239605 384.48 
L 200.239605 216.198094 
L 198.653138 216.198094 
z
" clip-path="url(#p1791707978)" style="fill: #1f77b4"/>
   </g>
   <g id="patch_46">
    <path d="M 200.636221 384.48 
L 202.222688 384.48 
L 202.222688 217.143824 
L 200.636221 217.143824 
z
" clip-path="url(#p1791707978)" style="fill: #1f77b4"/>
   </g>
   <g id="patch_47">
    <path d="M 202.619305 384.48 
L 204.205772 384.48 
L 204.205772 217.471934 
L 202.619305 217.471934 
z
" clip-path="url(#p1791707978)" style="fill: #1f77b4"/>
   </g>
   <g id="patch_48">
    <path d="M 204.602388 384.48 
L 206.188855 384.48 
L 206.188855 218.475565 
L 204.602388 218.475565 
z
" clip-path="url(#p1791707978)" style="fill: #1f77b4"/>
   </g>
   <g id="patch_49">
    <path d="M 206.585472 384.48 
L 208.171938 384.48 
L 208.171938 219.363392 
L 206.585472 219.363392 
z
" clip-path="url(#p1791707978)" style="fill: #1f77b4"/>
   </g>
   <g id="patch_50">
    <path d="M 208.568555 384.48 
L 210.155022 384.48 
L 210.155022 219.575699 
L 208.568555 219.575699 
z
" clip-path="url(#p1791707978)" style="fill: #1f77b4"/>
   </g>
   <g id="patch_51">
    <path d="M 210.551638 384.48 
L 212.138105 384.48 
L 212.138105 219.6143 
L 210.551638 219.6143 
z
" clip-path="url(#p1791707978)" style="fill: #1f77b4"/>
   </g>
   <g id="patch_52">
    <path d="M 212.534722 384.48 
L 214.121188 384.48 
L 214.121188 219.691502 
L 212.534722 219.691502 
z
" clip-path="url(#p1791707978)" style="fill: #1f77b4"/>
   </g>
   <g id="patch_53">
    <path d="M 214.517805 384.48 
L 216.104272 384.48 
L 216.104272 219.768705 
L 214.517805 219.768705 
z
" clip-path="url(#p1791707978)" style="fill: #1f77b4"/>
   </g>
   <g id="patch_54">
    <path d="M 216.500888 384.48 
L 218.087355 384.48 
L 218.087355 225.134271 
L 216.500888 225.134271 
z
" clip-path="url(#p1791707978)" style="fill: #1f77b4"/>
   </g>
   <g id="patch_55">
    <path d="M 218.483972 384.48 
L 220.070439 384.48 
L 220.070439 225.44308 
L 218.483972 225.44308 
z
" clip-path="url(#p1791707978)" style="fill: #1f77b4"/>
   </g>
   <g id="patch_56">
    <path d="M 220.467055 384.48 
L 222.053522 384.48 
L 222.053522 227.411741 
L 220.467055 227.411741 
z
" clip-path="url(#p1791707978)" style="fill: #1f77b4"/>
   </g>
   <g id="patch_57">
    <path d="M 222.450139 384.48 
L 224.036605 384.48 
L 224.036605 228.241667 
L 222.450139 228.241667 
z
" clip-path="url(#p1791707978)" style="fill: #1f77b4"/>
   </g>
   <g id="patch_58">
    <path d="M 224.433222 384.48 
L 226.019689 384.48 
L 226.019689 228.33817 
L 224.433222 228.33817 
z
" clip-path="url(#p1791707978)" style="fill: #1f77b4"/>
   </g>
   <g id="patch_59">
    <path d="M 226.416305 384.48 
L 228.002772 384.48 
L 228.002772 230.364733 
L 226.416305 230.364733 
z
" clip-path="url(#p1791707978)" style="fill: #1f77b4"/>
   </g>
   <g id="patch_60">
    <path d="M 228.399389 384.48 
L 229.985855 384.48 
L 229.985855 232.584301 
L 228.399389 232.584301 
z
" clip-path="url(#p1791707978)" style="fill: #1f77b4"/>
   </g>
   <g id="patch_61">
    <path d="M 230.382472 384.48 
L 231.968939 384.48 
L 231.968939 232.758007 
L 230.382472 232.758007 
z
" clip-path="url(#p1791707978)" style="fill: #1f77b4"/>
   </g>
   <g id="patch_62">
    <path d="M 232.365555 384.48 
L 233.952022 384.48 
L 233.952022 234.649465 
L 232.365555 234.649465 
z
" clip-path="url(#p1791707978)" style="fill: #1f77b4"/>
   </g>
   <g id="patch_63">
    <path d="M 234.348639 384.48 
L 235.935106 384.48 
L 235.935106 235.209182 
L 234.348639 235.209182 
z
" clip-path="url(#p1791707978)" style="fill: #1f77b4"/>
   </g>
   <g id="patch_64">
    <path d="M 236.331722 384.48 
L 237.918189 384.48 
L 237.918189 235.672397 
L 236.331722 235.672397 
z
" clip-path="url(#p1791707978)" style="fill: #1f77b4"/>
   </g>
   <g id="patch_65">
    <path d="M 238.314806 384.48 
L 239.901272 384.48 
L 239.901272 235.884703 
L 238.314806 235.884703 
z
" clip-path="url(#p1791707978)" style="fill: #1f77b4"/>
   </g>
   <g id="patch_66">
    <path d="M 240.297889 384.48 
L 241.884356 384.48 
L 241.884356 235.981206 
L 240.297889 235.981206 
z
" clip-path="url(#p1791707978)" style="fill: #1f77b4"/>
   </g>
   <g id="patch_67">
    <path d="M 242.280972 384.48 
L 243.867439 384.48 
L 243.867439 236.154912 
L 242.280972 236.154912 
z
" clip-path="url(#p1791707978)" style="fill: #1f77b4"/>
   </g>
   <g id="patch_68">
    <path d="M 244.264056 384.48 
L 245.850522 384.48 
L 245.850522 239.64832 
L 244.264056 239.64832 
z
" clip-path="url(#p1791707978)" style="fill: #1f77b4"/>
   </g>
   <g id="patch_69">
    <path d="M 246.247139 384.48 
L 247.833606 384.48 
L 247.833606 240.015031 
L 246.247139 240.015031 
z
" clip-path="url(#p1791707978)" style="fill: #1f77b4"/>
   </g>
   <g id="patch_70">
    <path d="M 248.230222 384.48 
L 249.816689 384.48 
L 249.816689 240.246638 
L 248.230222 240.246638 
z
" clip-path="url(#p1791707978)" style="fill: #1f77b4"/>
   </g>
   <g id="patch_71">
    <path d="M 250.213306 384.48 
L 251.799773 384.48 
L 251.799773 240.478245 
L 250.213306 240.478245 
z
" clip-path="url(#p1791707978)" style="fill: #1f77b4"/>
   </g>
   <g id="patch_72">
    <path d="M 252.196389 384.48 
L 253.782856 384.48 
L 253.782856 240.864257 
L 252.196389 240.864257 
z
" clip-path="url(#p1791707978)" style="fill: #1f77b4"/>
   </g>
   <g id="patch_73">
    <path d="M 254.179473 384.48 
L 255.765939 384.48 
L 255.765939 242.311802 
L 254.179473 242.311802 
z
" clip-path="url(#p1791707978)" style="fill: #1f77b4"/>
   </g>
   <g id="patch_74">
    <path d="M 256.162556 384.48 
L 257.749023 384.48 
L 257.749023 242.446906 
L 256.162556 242.446906 
z
" clip-path="url(#p1791707978)" style="fill: #1f77b4"/>
   </g>
   <g id="patch_75">
    <path d="M 258.145639 384.48 
L 259.732106 384.48 
L 259.732106 242.736415 
L 258.145639 242.736415 
z
" clip-path="url(#p1791707978)" style="fill: #1f77b4"/>
   </g>
   <g id="patch_76">
    <path d="M 260.128723 384.48 
L 261.715189 384.48 
L 261.715189 243.894451 
L 260.128723 243.894451 
z
" clip-path="url(#p1791707978)" style="fill: #1f77b4"/>
   </g>
   <g id="patch_77">
    <path d="M 262.111806 384.48 
L 263.698273 384.48 
L 263.698273 243.971653 
L 262.111806 243.971653 
z
" clip-path="url(#p1791707978)" style="fill: #1f77b4"/>
   </g>
   <g id="patch_78">
    <path d="M 264.094889 384.48 
L 265.681356 384.48 
L 265.681356 246.229823 
L 264.094889 246.229823 
z
" clip-path="url(#p1791707978)" style="fill: #1f77b4"/>
   </g>
   <g id="patch_79">
    <path d="M 266.077973 384.48 
L 267.66444 384.48 
L 267.66444 246.480731 
L 266.077973 246.480731 
z
" clip-path="url(#p1791707978)" style="fill: #1f77b4"/>
   </g>
   <g id="patch_80">
    <path d="M 268.061056 384.48 
L 269.647523 384.48 
L 269.647523 246.712338 
L 268.061056 246.712338 
z
" clip-path="url(#p1791707978)" style="fill: #1f77b4"/>
   </g>
   <g id="patch_81">
    <path d="M 270.04414 384.48 
L 271.630606 384.48 
L 271.630606 246.77024 
L 270.04414 246.77024 
z
" clip-path="url(#p1791707978)" style="fill: #1f77b4"/>
   </g>
   <g id="patch_82">
    <path d="M 272.027223 384.48 
L 273.61369 384.48 
L 273.61369 247.329957 
L 272.027223 247.329957 
z
" clip-path="url(#p1791707978)" style="fill: #1f77b4"/>
   </g>
   <g id="patch_83">
    <path d="M 274.010306 384.48 
L 275.596773 384.48 
L 275.596773 249.433722 
L 274.010306 249.433722 
z
" clip-path="url(#p1791707978)" style="fill: #1f77b4"/>
   </g>
   <g id="patch_84">
    <path d="M 275.99339 384.48 
L 277.579856 384.48 
L 277.579856 249.68463 
L 275.99339 249.68463 
z
" clip-path="url(#p1791707978)" style="fill: #1f77b4"/>
   </g>
   <g id="patch_85">
    <path d="M 277.976473 384.48 
L 279.56294 384.48 
L 279.56294 249.935538 
L 277.976473 249.935538 
z
" clip-path="url(#p1791707978)" style="fill: #1f77b4"/>
   </g>
   <g id="patch_86">
    <path d="M 279.959556 384.48 
L 281.546023 384.48 
L 281.546023 250.553157 
L 279.959556 250.553157 
z
" clip-path="url(#p1791707978)" style="fill: #1f77b4"/>
   </g>
   <g id="patch_87">
    <path d="M 281.94264 384.48 
L 283.529107 384.48 
L 283.529107 251.749794 
L 281.94264 251.749794 
z
" clip-path="url(#p1791707978)" style="fill: #1f77b4"/>
   </g>
   <g id="patch_88">
    <path d="M 283.925723 384.48 
L 285.51219 384.48 
L 285.51219 252.348113 
L 283.925723 252.348113 
z
" clip-path="url(#p1791707978)" style="fill: #1f77b4"/>
   </g>
   <g id="patch_89">
    <path d="M 285.908807 384.48 
L 287.495273 384.48 
L 287.495273 252.502517 
L 285.908807 252.502517 
z
" clip-path="url(#p1791707978)" style="fill: #1f77b4"/>
   </g>
   <g id="patch_90">
    <path d="M 287.89189 384.48 
L 289.478357 384.48 
L 289.478357 253.699154 
L 287.89189 253.699154 
z
" clip-path="url(#p1791707978)" style="fill: #1f77b4"/>
   </g>
   <g id="patch_91">
    <path d="M 289.874973 384.48 
L 291.46144 384.48 
L 291.46144 253.950062 
L 289.874973 253.950062 
z
" clip-path="url(#p1791707978)" style="fill: #1f77b4"/>
   </g>
   <g id="patch_92">
    <path d="M 291.858057 384.48 
L 293.444523 384.48 
L 293.444523 254.20097 
L 291.858057 254.20097 
z
" clip-path="url(#p1791707978)" style="fill: #1f77b4"/>
   </g>
   <g id="patch_93">
    <path d="M 293.84114 384.48 
L 295.427607 384.48 
L 295.427607 255.359006 
L 293.84114 255.359006 
z
" clip-path="url(#p1791707978)" style="fill: #1f77b4"/>
   </g>
   <g id="patch_94">
    <path d="M 295.824223 384.48 
L 297.41069 384.48 
L 297.41069 255.648515 
L 295.824223 255.648515 
z
" clip-path="url(#p1791707978)" style="fill: #1f77b4"/>
   </g>
   <g id="patch_95">
    <path d="M 297.807307 384.48 
L 299.393774 384.48 
L 299.393774 255.725717 
L 297.807307 255.725717 
z
" clip-path="url(#p1791707978)" style="fill: #1f77b4"/>
   </g>
   <g id="patch_96">
    <path d="M 299.79039 384.48 
L 301.376857 384.48 
L 301.376857 256.748649 
L 299.79039 256.748649 
z
" clip-path="url(#p1791707978)" style="fill: #1f77b4"/>
   </g>
   <g id="patch_97">
    <path d="M 301.773474 384.48 
L 303.35994 384.48 
L 303.35994 258.003188 
L 301.773474 258.003188 
z
" clip-path="url(#p1791707978)" style="fill: #1f77b4"/>
   </g>
   <g id="patch_98">
    <path d="M 303.756557 384.48 
L 305.343024 384.48 
L 305.343024 260.106953 
L 303.756557 260.106953 
z
" clip-path="url(#p1791707978)" style="fill: #1f77b4"/>
   </g>
   <g id="patch_99">
    <path d="M 305.73964 384.48 
L 307.326107 384.48 
L 307.326107 260.608768 
L 305.73964 260.608768 
z
" clip-path="url(#p1791707978)" style="fill: #1f77b4"/>
   </g>
   <g id="patch_100">
    <path d="M 307.722724 384.48 
L 309.30919 384.48 
L 309.30919 261.342191 
L 307.722724 261.342191 
z
" clip-path="url(#p1791707978)" style="fill: #1f77b4"/>
   </g>
   <g id="patch_101">
    <path d="M 309.705807 384.48 
L 311.292274 384.48 
L 311.292274 261.747503 
L 309.705807 261.747503 
z
" clip-path="url(#p1791707978)" style="fill: #1f77b4"/>
   </g>
   <g id="patch_102">
    <path d="M 311.68889 384.48 
L 313.275357 384.48 
L 313.275357 263.812667 
L 311.68889 263.812667 
z
" clip-path="url(#p1791707978)" style="fill: #1f77b4"/>
   </g>
   <g id="patch_103">
    <path d="M 313.671974 384.48 
L 315.258441 384.48 
L 315.258441 263.967072 
L 313.671974 263.967072 
z
" clip-path="url(#p1791707978)" style="fill: #1f77b4"/>
   </g>
   <g id="patch_104">
    <path d="M 315.655057 384.48 
L 317.241524 384.48 
L 317.241524 264.739096 
L 315.655057 264.739096 
z
" clip-path="url(#p1791707978)" style="fill: #1f77b4"/>
   </g>
   <g id="patch_105">
    <path d="M 317.638141 384.48 
L 319.224607 384.48 
L 319.224607 265.723426 
L 317.638141 265.723426 
z
" clip-path="url(#p1791707978)" style="fill: #1f77b4"/>
   </g>
   <g id="patch_106">
    <path d="M 319.621224 384.48 
L 321.207691 384.48 
L 321.207691 266.630554 
L 319.621224 266.630554 
z
" clip-path="url(#p1791707978)" style="fill: #1f77b4"/>
   </g>
   <g id="patch_107">
    <path d="M 321.604307 384.48 
L 323.190774 384.48 
L 323.190774 267.286775 
L 321.604307 267.286775 
z
" clip-path="url(#p1791707978)" style="fill: #1f77b4"/>
   </g>
   <g id="patch_108">
    <path d="M 323.587391 384.48 
L 325.173857 384.48 
L 325.173857 268.020197 
L 323.587391 268.020197 
z
" clip-path="url(#p1791707978)" style="fill: #1f77b4"/>
   </g>
   <g id="patch_109">
    <path d="M 325.570474 384.48 
L 327.156941 384.48 
L 327.156941 268.502712 
L 325.570474 268.502712 
z
" clip-path="url(#p1791707978)" style="fill: #1f77b4"/>
   </g>
   <g id="patch_110">
    <path d="M 327.553557 384.48 
L 329.140024 384.48 
L 329.140024 268.792221 
L 327.553557 268.792221 
z
" clip-path="url(#p1791707978)" style="fill: #1f77b4"/>
   </g>
   <g id="patch_111">
    <path d="M 329.536641 384.48 
L 331.123108 384.48 
L 331.123108 269.043129 
L 329.536641 269.043129 
z
" clip-path="url(#p1791707978)" style="fill: #1f77b4"/>
   </g>
   <g id="patch_112">
    <path d="M 331.519724 384.48 
L 333.106191 384.48 
L 333.106191 270.992489 
L 331.519724 270.992489 
z
" clip-path="url(#p1791707978)" style="fill: #1f77b4"/>
   </g>
   <g id="patch_113">
    <path d="M 333.502808 384.48 
L 335.089274 384.48 
L 335.089274 271.66801 
L 333.502808 271.66801 
z
" clip-path="url(#p1791707978)" style="fill: #1f77b4"/>
   </g>
   <g id="patch_114">
    <path d="M 335.485891 384.48 
L 337.072358 384.48 
L 337.072358 273.559469 
L 335.485891 273.559469 
z
" clip-path="url(#p1791707978)" style="fill: #1f77b4"/>
   </g>
   <g id="patch_115">
    <path d="M 337.468974 384.48 
L 339.055441 384.48 
L 339.055441 274.138487 
L 337.468974 274.138487 
z
" clip-path="url(#p1791707978)" style="fill: #1f77b4"/>
   </g>
   <g id="patch_116">
    <path d="M 339.452058 384.48 
L 341.038524 384.48 
L 341.038524 275.103517 
L 339.452058 275.103517 
z
" clip-path="url(#p1791707978)" style="fill: #1f77b4"/>
   </g>
   <g id="patch_117">
    <path d="M 341.435141 384.48 
L 343.021608 384.48 
L 343.021608 275.566731 
L 341.435141 275.566731 
z
" clip-path="url(#p1791707978)" style="fill: #1f77b4"/>
   </g>
   <g id="patch_118">
    <path d="M 343.418224 384.48 
L 345.004691 384.48 
L 345.004691 276.300154 
L 343.418224 276.300154 
z
" clip-path="url(#p1791707978)" style="fill: #1f77b4"/>
   </g>
   <g id="patch_119">
    <path d="M 345.401308 384.48 
L 346.987775 384.48 
L 346.987775 276.782668 
L 345.401308 276.782668 
z
" clip-path="url(#p1791707978)" style="fill: #1f77b4"/>
   </g>
   <g id="patch_120">
    <path d="M 347.384391 384.48 
L 348.970858 384.48 
L 348.970858 277.47749 
L 347.384391 277.47749 
z
" clip-path="url(#p1791707978)" style="fill: #1f77b4"/>
   </g>
   <g id="patch_121">
    <path d="M 349.367475 384.48 
L 350.953941 384.48 
L 350.953941 277.709097 
L 349.367475 277.709097 
z
" clip-path="url(#p1791707978)" style="fill: #1f77b4"/>
   </g>
   <g id="patch_122">
    <path d="M 351.350558 384.48 
L 352.937025 384.48 
L 352.937025 278.210913 
L 351.350558 278.210913 
z
" clip-path="url(#p1791707978)" style="fill: #1f77b4"/>
   </g>
   <g id="patch_123">
    <path d="M 353.333641 384.48 
L 354.920108 384.48 
L 354.920108 279.504053 
L 353.333641 279.504053 
z
" clip-path="url(#p1791707978)" style="fill: #1f77b4"/>
   </g>
   <g id="patch_124">
    <path d="M 355.316725 384.48 
L 356.903191 384.48 
L 356.903191 279.600556 
L 355.316725 279.600556 
z
" clip-path="url(#p1791707978)" style="fill: #1f77b4"/>
   </g>
   <g id="patch_125">
    <path d="M 357.299808 384.48 
L 358.886275 384.48 
L 358.886275 279.73566 
L 357.299808 279.73566 
z
" clip-path="url(#p1791707978)" style="fill: #1f77b4"/>
   </g>
   <g id="patch_126">
    <path d="M 359.282891 384.48 
L 360.869358 384.48 
L 360.869358 280.237475 
L 359.282891 280.237475 
z
" clip-path="url(#p1791707978)" style="fill: #1f77b4"/>
   </g>
   <g id="patch_127">
    <path d="M 361.265975 384.48 
L 362.852442 384.48 
L 362.852442 280.681389 
L 361.265975 280.681389 
z
" clip-path="url(#p1791707978)" style="fill: #1f77b4"/>
   </g>
   <g id="patch_128">
    <path d="M 363.249058 384.48 
L 364.835525 384.48 
L 364.835525 280.893696 
L 363.249058 280.893696 
z
" clip-path="url(#p1791707978)" style="fill: #1f77b4"/>
   </g>
   <g id="patch_129">
    <path d="M 365.232142 384.48 
L 366.818608 384.48 
L 366.818608 281.376211 
L 365.232142 281.376211 
z
" clip-path="url(#p1791707978)" style="fill: #1f77b4"/>
   </g>
   <g id="patch_130">
    <path d="M 367.215225 384.48 
L 368.801692 384.48 
L 368.801692 282.244737 
L 367.215225 282.244737 
z
" clip-path="url(#p1791707978)" style="fill: #1f77b4"/>
   </g>
   <g id="patch_131">
    <path d="M 369.198308 384.48 
L 370.784775 384.48 
L 370.784775 282.302639 
L 369.198308 282.302639 
z
" clip-path="url(#p1791707978)" style="fill: #1f77b4"/>
   </g>
   <g id="patch_132">
    <path d="M 371.181392 384.48 
L 372.767858 384.48 
L 372.767858 282.360541 
L 371.181392 282.360541 
z
" clip-path="url(#p1791707978)" style="fill: #1f77b4"/>
   </g>
   <g id="patch_133">
    <path d="M 373.164475 384.48 
L 374.750942 384.48 
L 374.750942 282.514946 
L 373.164475 282.514946 
z
" clip-path="url(#p1791707978)" style="fill: #1f77b4"/>
   </g>
   <g id="patch_134">
    <path d="M 375.147558 384.48 
L 376.734025 384.48 
L 376.734025 282.65005 
L 375.147558 282.65005 
z
" clip-path="url(#p1791707978)" style="fill: #1f77b4"/>
   </g>
   <g id="patch_135">
    <path d="M 377.130642 384.48 
L 378.717109 384.48 
L 378.717109 284.309901 
L 377.130642 284.309901 
z
" clip-path="url(#p1791707978)" style="fill: #1f77b4"/>
   </g>
   <g id="patch_136">
    <path d="M 379.113725 384.48 
L 380.700192 384.48 
L 380.700192 285.081925 
L 379.113725 285.081925 
z
" clip-path="url(#p1791707978)" style="fill: #1f77b4"/>
   </g>
   <g id="patch_137">
    <path d="M 381.096809 384.48 
L 382.683275 384.48 
L 382.683275 285.89255 
L 381.096809 285.89255 
z
" clip-path="url(#p1791707978)" style="fill: #1f77b4"/>
   </g>
   <g id="patch_138">
    <path d="M 383.079892 384.48 
L 384.666359 384.48 
L 384.666359 286.104857 
L 383.079892 286.104857 
z
" clip-path="url(#p1791707978)" style="fill: #1f77b4"/>
   </g>
   <g id="patch_139">
    <path d="M 385.062975 384.48 
L 386.649442 384.48 
L 386.649442 286.876881 
L 385.062975 286.876881 
z
" clip-path="url(#p1791707978)" style="fill: #1f77b4"/>
   </g>
   <g id="patch_140">
    <path d="M 387.046059 384.48 
L 388.632525 384.48 
L 388.632525 287.050586 
L 387.046059 287.050586 
z
" clip-path="url(#p1791707978)" style="fill: #1f77b4"/>
   </g>
   <g id="patch_141">
    <path d="M 389.029142 384.48 
L 390.615609 384.48 
L 390.615609 289.559664 
L 389.029142 289.559664 
z
" clip-path="url(#p1791707978)" style="fill: #1f77b4"/>
   </g>
   <g id="patch_142">
    <path d="M 391.012225 384.48 
L 392.598692 384.48 
L 392.598692 290.447491 
L 391.012225 290.447491 
z
" clip-path="url(#p1791707978)" style="fill: #1f77b4"/>
   </g>
   <g id="patch_143">
    <path d="M 392.995309 384.48 
L 394.581776 384.48 
L 394.581776 290.486092 
L 392.995309 290.486092 
z
" clip-path="url(#p1791707978)" style="fill: #1f77b4"/>
   </g>
   <g id="patch_144">
    <path d="M 394.978392 384.48 
L 396.564859 384.48 
L 396.564859 291.161613 
L 394.978392 291.161613 
z
" clip-path="url(#p1791707978)" style="fill: #1f77b4"/>
   </g>
   <g id="patch_145">
    <path d="M 396.961476 384.48 
L 398.547942 384.48 
L 398.547942 291.200214 
L 396.961476 291.200214 
z
" clip-path="url(#p1791707978)" style="fill: #1f77b4"/>
   </g>
   <g id="patch_146">
    <path d="M 398.944559 384.48 
L 400.531026 384.48 
L 400.531026 291.354619 
L 398.944559 291.354619 
z
" clip-path="url(#p1791707978)" style="fill: #1f77b4"/>
   </g>
   <g id="patch_147">
    <path d="M 400.927642 384.48 
L 402.514109 384.48 
L 402.514109 291.412521 
L 400.927642 291.412521 
z
" clip-path="url(#p1791707978)" style="fill: #1f77b4"/>
   </g>
   <g id="patch_148">
    <path d="M 402.910726 384.48 
L 404.497192 384.48 
L 404.497192 291.431822 
L 402.910726 291.431822 
z
" clip-path="url(#p1791707978)" style="fill: #1f77b4"/>
   </g>
   <g id="patch_149">
    <path d="M 404.893809 384.48 
L 406.480276 384.48 
L 406.480276 291.605527 
L 404.893809 291.605527 
z
" clip-path="url(#p1791707978)" style="fill: #1f77b4"/>
   </g>
   <g id="patch_150">
    <path d="M 406.876892 384.48 
L 408.463359 384.48 
L 408.463359 291.933637 
L 406.876892 291.933637 
z
" clip-path="url(#p1791707978)" style="fill: #1f77b4"/>
   </g>
   <g id="patch_151">
    <path d="M 408.859976 384.48 
L 410.446443 384.48 
L 410.446443 292.377551 
L 408.859976 292.377551 
z
" clip-path="url(#p1791707978)" style="fill: #1f77b4"/>
   </g>
   <g id="patch_152">
    <path d="M 410.843059 384.48 
L 412.429526 384.48 
L 412.429526 293.091673 
L 410.843059 293.091673 
z
" clip-path="url(#p1791707978)" style="fill: #1f77b4"/>
   </g>
   <g id="patch_153">
    <path d="M 412.826143 384.48 
L 414.412609 384.48 
L 414.412609 294.095304 
L 412.826143 294.095304 
z
" clip-path="url(#p1791707978)" style="fill: #1f77b4"/>
   </g>
   <g id="patch_154">
    <path d="M 414.809226 384.48 
L 416.395693 384.48 
L 416.395693 294.59712 
L 414.809226 294.59712 
z
" clip-path="url(#p1791707978)" style="fill: #1f77b4"/>
   </g>
   <g id="patch_155">
    <path d="M 416.792309 384.48 
L 418.378776 384.48 
L 418.378776 294.655021 
L 416.792309 294.655021 
z
" clip-path="url(#p1791707978)" style="fill: #1f77b4"/>
   </g>
   <g id="patch_156">
    <path d="M 418.775393 384.48 
L 420.361859 384.48 
L 420.361859 294.790126 
L 418.775393 294.790126 
z
" clip-path="url(#p1791707978)" style="fill: #1f77b4"/>
   </g>
   <g id="patch_157">
    <path d="M 420.758476 384.48 
L 422.344943 384.48 
L 422.344943 295.214739 
L 420.758476 295.214739 
z
" clip-path="url(#p1791707978)" style="fill: #1f77b4"/>
   </g>
   <g id="patch_158">
    <path d="M 422.741559 384.48 
L 424.328026 384.48 
L 424.328026 296.816688 
L 422.741559 296.816688 
z
" clip-path="url(#p1791707978)" style="fill: #1f77b4"/>
   </g>
   <g id="patch_159">
    <path d="M 424.724643 384.48 
L 426.31111 384.48 
L 426.31111 297.048295 
L 424.724643 297.048295 
z
" clip-path="url(#p1791707978)" style="fill: #1f77b4"/>
   </g>
   <g id="patch_160">
    <path d="M 426.707726 384.48 
L 428.294193 384.48 
L 428.294193 297.241301 
L 426.707726 297.241301 
z
" clip-path="url(#p1791707978)" style="fill: #1f77b4"/>
   </g>
   <g id="patch_161">
    <path d="M 428.69081 384.48 
L 430.277276 384.48 
L 430.277276 298.302834 
L 428.69081 298.302834 
z
" clip-path="url(#p1791707978)" style="fill: #1f77b4"/>
   </g>
   <g id="patch_162">
    <path d="M 430.673893 384.48 
L 432.26036 384.48 
L 432.26036 298.573043 
L 430.673893 298.573043 
z
" clip-path="url(#p1791707978)" style="fill: #1f77b4"/>
   </g>
   <g id="patch_163">
    <path d="M 432.656976 384.48 
L 434.243443 384.48 
L 434.243443 299.229263 
L 432.656976 299.229263 
z
" clip-path="url(#p1791707978)" style="fill: #1f77b4"/>
   </g>
   <g id="patch_164">
    <path d="M 434.64006 384.48 
L 436.226526 384.48 
L 436.226526 299.325766 
L 434.64006 299.325766 
z
" clip-path="url(#p1791707978)" style="fill: #1f77b4"/>
   </g>
   <g id="patch_165">
    <path d="M 436.623143 384.48 
L 438.20961 384.48 
L 438.20961 299.383668 
L 436.623143 299.383668 
z
" clip-path="url(#p1791707978)" style="fill: #1f77b4"/>
   </g>
   <g id="patch_166">
    <path d="M 438.606226 384.48 
L 440.192693 384.48 
L 440.192693 300.155691 
L 438.606226 300.155691 
z
" clip-path="url(#p1791707978)" style="fill: #1f77b4"/>
   </g>
   <g id="patch_167">
    <path d="M 440.58931 384.48 
L 442.175777 384.48 
L 442.175777 301.71904 
L 440.58931 301.71904 
z
" clip-path="url(#p1791707978)" style="fill: #1f77b4"/>
   </g>
   <g id="patch_168">
    <path d="M 442.572393 384.48 
L 444.15886 384.48 
L 444.15886 302.201555 
L 442.572393 302.201555 
z
" clip-path="url(#p1791707978)" style="fill: #1f77b4"/>
   </g>
   <g id="patch_169">
    <path d="M 444.555477 384.48 
L 446.141943 384.48 
L 446.141943 302.761272 
L 444.555477 302.761272 
z
" clip-path="url(#p1791707978)" style="fill: #1f77b4"/>
   </g>
   <g id="patch_170">
    <path d="M 446.53856 384.48 
L 448.125027 384.48 
L 448.125027 303.01218 
L 446.53856 303.01218 
z
" clip-path="url(#p1791707978)" style="fill: #1f77b4"/>
   </g>
   <g id="patch_171">
    <path d="M 448.521643 384.48 
L 450.10811 384.48 
L 450.10811 304.054412 
L 448.521643 304.054412 
z
" clip-path="url(#p1791707978)" style="fill: #1f77b4"/>
   </g>
   <g id="patch_172">
    <path d="M 450.504727 384.48 
L 452.091193 384.48 
L 452.091193 306.003772 
L 450.504727 306.003772 
z
" clip-path="url(#p1791707978)" style="fill: #1f77b4"/>
   </g>
   <g id="patch_173">
    <path d="M 452.48781 384.48 
L 454.074277 384.48 
L 454.074277 306.621391 
L 452.48781 306.621391 
z
" clip-path="url(#p1791707978)" style="fill: #1f77b4"/>
   </g>
   <g id="patch_174">
    <path d="M 454.470893 384.48 
L 456.05736 384.48 
L 456.05736 307.451317 
L 454.470893 307.451317 
z
" clip-path="url(#p1791707978)" style="fill: #1f77b4"/>
   </g>
   <g id="patch_175">
    <path d="M 456.453977 384.48 
L 458.040444 384.48 
L 458.040444 307.489918 
L 456.453977 307.489918 
z
" clip-path="url(#p1791707978)" style="fill: #1f77b4"/>
   </g>
   <g id="patch_176">
    <path d="M 458.43706 384.48 
L 460.023527 384.48 
L 460.023527 307.87593 
L 458.43706 307.87593 
z
" clip-path="url(#p1791707978)" style="fill: #1f77b4"/>
   </g>
   <g id="patch_177">
    <path d="M 460.420144 384.48 
L 462.00661 384.48 
L 462.00661 309.342776 
L 460.420144 309.342776 
z
" clip-path="url(#p1791707978)" style="fill: #1f77b4"/>
   </g>
   <g id="patch_178">
    <path d="M 462.403227 384.48 
L 463.989694 384.48 
L 463.989694 310.249904 
L 462.403227 310.249904 
z
" clip-path="url(#p1791707978)" style="fill: #1f77b4"/>
   </g>
   <g id="patch_179">
    <path d="M 464.38631 384.48 
L 465.972777 384.48 
L 465.972777 310.925425 
L 464.38631 310.925425 
z
" clip-path="url(#p1791707978)" style="fill: #1f77b4"/>
   </g>
   <g id="patch_180">
    <path d="M 466.369394 384.48 
L 467.95586 384.48 
L 467.95586 311.890454 
L 466.369394 311.890454 
z
" clip-path="url(#p1791707978)" style="fill: #1f77b4"/>
   </g>
   <g id="patch_181">
    <path d="M 468.352477 384.48 
L 469.938944 384.48 
L 469.938944 312.334368 
L 468.352477 312.334368 
z
" clip-path="url(#p1791707978)" style="fill: #1f77b4"/>
   </g>
   <g id="patch_182">
    <path d="M 470.33556 384.48 
L 471.922027 384.48 
L 471.922027 314.418833 
L 470.33556 314.418833 
z
" clip-path="url(#p1791707978)" style="fill: #1f77b4"/>
   </g>
   <g id="patch_183">
    <path d="M 472.318644 384.48 
L 473.905111 384.48 
L 473.905111 317.371824 
L 472.318644 317.371824 
z
" clip-path="url(#p1791707978)" style="fill: #1f77b4"/>
   </g>
   <g id="patch_184">
    <path d="M 474.301727 384.48 
L 475.888194 384.48 
L 475.888194 318.336854 
L 474.301727 318.336854 
z
" clip-path="url(#p1791707978)" style="fill: #1f77b4"/>
   </g>
   <g id="patch_185">
    <path d="M 476.284811 384.48 
L 477.871277 384.48 
L 477.871277 318.452657 
L 476.284811 318.452657 
z
" clip-path="url(#p1791707978)" style="fill: #1f77b4"/>
   </g>
   <g id="patch_186">
    <path d="M 478.267894 384.48 
L 479.854361 384.48 
L 479.854361 318.684265 
L 478.267894 318.684265 
z
" clip-path="url(#p1791707978)" style="fill: #1f77b4"/>
   </g>
   <g id="patch_187">
    <path d="M 480.250977 384.48 
L 481.837444 384.48 
L 481.837444 318.954473 
L 480.250977 318.954473 
z
" clip-path="url(#p1791707978)" style="fill: #1f77b4"/>
   </g>
   <g id="patch_188">
    <path d="M 482.234061 384.48 
L 483.820527 384.48 
L 483.820527 319.224681 
L 482.234061 319.224681 
z
" clip-path="url(#p1791707978)" style="fill: #1f77b4"/>
   </g>
   <g id="patch_189">
    <path d="M 484.217144 384.48 
L 485.803611 384.48 
L 485.803611 319.224681 
L 484.217144 319.224681 
z
" clip-path="url(#p1791707978)" style="fill: #1f77b4"/>
   </g>
   <g id="patch_190">
    <path d="M 486.200227 384.48 
L 487.786694 384.48 
L 487.786694 319.398387 
L 486.200227 319.398387 
z
" clip-path="url(#p1791707978)" style="fill: #1f77b4"/>
   </g>
   <g id="patch_191">
    <path d="M 488.183311 384.48 
L 489.769778 384.48 
L 489.769778 319.861601 
L 488.183311 319.861601 
z
" clip-path="url(#p1791707978)" style="fill: #1f77b4"/>
   </g>
   <g id="patch_192">
    <path d="M 490.166394 384.48 
L 491.752861 384.48 
L 491.752861 320.016006 
L 490.166394 320.016006 
z
" clip-path="url(#p1791707978)" style="fill: #1f77b4"/>
   </g>
   <g id="patch_193">
    <path d="M 492.149478 384.48 
L 493.735944 384.48 
L 493.735944 321.405649 
L 492.149478 321.405649 
z
" clip-path="url(#p1791707978)" style="fill: #1f77b4"/>
   </g>
   <g id="patch_194">
    <path d="M 494.132561 384.48 
L 495.719028 384.48 
L 495.719028 321.502152 
L 494.132561 321.502152 
z
" clip-path="url(#p1791707978)" style="fill: #1f77b4"/>
   </g>
   <g id="patch_195">
    <path d="M 496.115644 384.48 
L 497.702111 384.48 
L 497.702111 321.714458 
L 496.115644 321.714458 
z
" clip-path="url(#p1791707978)" style="fill: #1f77b4"/>
   </g>
   <g id="patch_196">
    <path d="M 498.098728 384.48 
L 499.685194 384.48 
L 499.685194 322.254875 
L 498.098728 322.254875 
z
" clip-path="url(#p1791707978)" style="fill: #1f77b4"/>
   </g>
   <g id="patch_197">
    <path d="M 500.081811 384.48 
L 501.668278 384.48 
L 501.668278 322.602286 
L 500.081811 322.602286 
z
" clip-path="url(#p1791707978)" style="fill: #1f77b4"/>
   </g>
   <g id="patch_198">
    <path d="M 502.064894 384.48 
L 503.651361 384.48 
L 503.651361 323.39361 
L 502.064894 323.39361 
z
" clip-path="url(#p1791707978)" style="fill: #1f77b4"/>
   </g>
   <g id="patch_199">
    <path d="M 504.047978 384.48 
L 505.634445 384.48 
L 505.634445 323.856825 
L 504.047978 323.856825 
z
" clip-path="url(#p1791707978)" style="fill: #1f77b4"/>
   </g>
   <g id="patch_200">
    <path d="M 506.031061 384.48 
L 507.617528 384.48 
L 507.617528 324.204235 
L 506.031061 324.204235 
z
" clip-path="url(#p1791707978)" style="fill: #1f77b4"/>
   </g>
   <g id="patch_201">
    <path d="M 508.014145 384.48 
L 509.600611 384.48 
L 509.600611 324.223536 
L 508.014145 324.223536 
z
" clip-path="url(#p1791707978)" style="fill: #1f77b4"/>
   </g>
   <g id="patch_202">
    <path d="M 509.997228 384.48 
L 511.583695 384.48 
L 511.583695 324.416542 
L 509.997228 324.416542 
z
" clip-path="url(#p1791707978)" style="fill: #1f77b4"/>
   </g>
   <g id="patch_203">
    <path d="M 511.980311 384.48 
L 513.566778 384.48 
L 513.566778 324.551646 
L 511.980311 324.551646 
z
" clip-path="url(#p1791707978)" style="fill: #1f77b4"/>
   </g>
   <g id="patch_204">
    <path d="M 513.963395 384.48 
L 515.549861 384.48 
L 515.549861 324.744652 
L 513.963395 324.744652 
z
" clip-path="url(#p1791707978)" style="fill: #1f77b4"/>
   </g>
   <g id="patch_205">
    <path d="M 515.946478 384.48 
L 517.532945 384.48 
L 517.532945 325.053462 
L 515.946478 325.053462 
z
" clip-path="url(#p1791707978)" style="fill: #1f77b4"/>
   </g>
   <g id="patch_206">
    <path d="M 517.929561 384.48 
L 519.516028 384.48 
L 519.516028 325.149965 
L 517.929561 325.149965 
z
" clip-path="url(#p1791707978)" style="fill: #1f77b4"/>
   </g>
   <g id="patch_207">
    <path d="M 519.912645 384.48 
L 521.499112 384.48 
L 521.499112 325.613179 
L 519.912645 325.613179 
z
" clip-path="url(#p1791707978)" style="fill: #1f77b4"/>
   </g>
   <g id="patch_208">
    <path d="M 521.895728 384.48 
L 523.482195 384.48 
L 523.482195 325.999191 
L 521.895728 325.999191 
z
" clip-path="url(#p1791707978)" style="fill: #1f77b4"/>
   </g>
   <g id="patch_209">
    <path d="M 523.878812 384.48 
L 525.465278 384.48 
L 525.465278 326.230798 
L 523.878812 326.230798 
z
" clip-path="url(#p1791707978)" style="fill: #1f77b4"/>
   </g>
   <g id="patch_210">
    <path d="M 525.861895 384.48 
L 527.448362 384.48 
L 527.448362 326.655411 
L 525.861895 326.655411 
z
" clip-path="url(#p1791707978)" style="fill: #1f77b4"/>
   </g>
   <g id="patch_211">
    <path d="M 527.844978 384.48 
L 529.431445 384.48 
L 529.431445 326.94492 
L 527.844978 326.94492 
z
" clip-path="url(#p1791707978)" style="fill: #1f77b4"/>
   </g>
   <g id="patch_212">
    <path d="M 529.828062 384.48 
L 531.414528 384.48 
L 531.414528 327.330932 
L 529.828062 327.330932 
z
" clip-path="url(#p1791707978)" style="fill: #1f77b4"/>
   </g>
   <g id="patch_213">
    <path d="M 531.811145 384.48 
L 533.397612 384.48 
L 533.397612 327.466036 
L 531.811145 327.466036 
z
" clip-path="url(#p1791707978)" style="fill: #1f77b4"/>
   </g>
   <g id="patch_214">
    <path d="M 533.794228 384.48 
L 535.380695 384.48 
L 535.380695 327.485337 
L 533.794228 327.485337 
z
" clip-path="url(#p1791707978)" style="fill: #1f77b4"/>
   </g>
   <g id="patch_215">
    <path d="M 535.777312 384.48 
L 537.363779 384.48 
L 537.363779 327.523938 
L 535.777312 327.523938 
z
" clip-path="url(#p1791707978)" style="fill: #1f77b4"/>
   </g>
   <g id="patch_216">
    <path d="M 537.760395 384.48 
L 539.346862 384.48 
L 539.346862 328.064355 
L 537.760395 328.064355 
z
" clip-path="url(#p1791707978)" style="fill: #1f77b4"/>
   </g>
   <g id="patch_217">
    <path d="M 539.743479 384.48 
L 541.329945 384.48 
L 541.329945 328.932882 
L 539.743479 328.932882 
z
" clip-path="url(#p1791707978)" style="fill: #1f77b4"/>
   </g>
   <g id="patch_218">
    <path d="M 541.726562 384.48 
L 543.313029 384.48 
L 543.313029 329.453998 
L 541.726562 329.453998 
z
" clip-path="url(#p1791707978)" style="fill: #1f77b4"/>
   </g>
   <g id="patch_219">
    <path d="M 543.709645 384.48 
L 545.296112 384.48 
L 545.296112 330.419028 
L 543.709645 330.419028 
z
" clip-path="url(#p1791707978)" style="fill: #1f77b4"/>
   </g>
   <g id="patch_220">
    <path d="M 545.692729 384.48 
L 547.279195 384.48 
L 547.279195 330.80504 
L 545.692729 330.80504 
z
" clip-path="url(#p1791707978)" style="fill: #1f77b4"/>
   </g>
   <g id="patch_221">
    <path d="M 547.675812 384.48 
L 549.262279 384.48 
L 549.262279 331.557763 
L 547.675812 331.557763 
z
" clip-path="url(#p1791707978)" style="fill: #1f77b4"/>
   </g>
   <g id="patch_222">
    <path d="M 549.658895 384.48 
L 551.245362 384.48 
L 551.245362 333.584326 
L 549.658895 333.584326 
z
" clip-path="url(#p1791707978)" style="fill: #1f77b4"/>
   </g>
   <g id="patch_223">
    <path d="M 551.641979 384.48 
L 553.228446 384.48 
L 553.228446 333.603626 
L 551.641979 333.603626 
z
" clip-path="url(#p1791707978)" style="fill: #1f77b4"/>
   </g>
   <g id="patch_224">
    <path d="M 553.625062 384.48 
L 555.211529 384.48 
L 555.211529 334.896766 
L 553.625062 334.896766 
z
" clip-path="url(#p1791707978)" style="fill: #1f77b4"/>
   </g>
   <g id="patch_225">
    <path d="M 555.608146 384.48 
L 557.194612 384.48 
L 557.194612 335.244177 
L 555.608146 335.244177 
z
" clip-path="url(#p1791707978)" style="fill: #1f77b4"/>
   </g>
   <g id="patch_226">
    <path d="M 557.591229 384.48 
L 559.177696 384.48 
L 559.177696 335.417882 
L 557.591229 335.417882 
z
" clip-path="url(#p1791707978)" style="fill: #1f77b4"/>
   </g>
   <g id="patch_227">
    <path d="M 559.574312 384.48 
L 561.160779 384.48 
L 561.160779 335.533686 
L 559.574312 335.533686 
z
" clip-path="url(#p1791707978)" style="fill: #1f77b4"/>
   </g>
   <g id="patch_228">
    <path d="M 561.557396 384.48 
L 563.143862 384.48 
L 563.143862 335.630189 
L 561.557396 335.630189 
z
" clip-path="url(#p1791707978)" style="fill: #1f77b4"/>
   </g>
   <g id="patch_229">
    <path d="M 563.540479 384.48 
L 565.126946 384.48 
L 565.126946 335.630189 
L 563.540479 335.630189 
z
" clip-path="url(#p1791707978)" style="fill: #1f77b4"/>
   </g>
   <g id="patch_230">
    <path d="M 565.523562 384.48 
L 567.110029 384.48 
L 567.110029 336.402213 
L 565.523562 336.402213 
z
" clip-path="url(#p1791707978)" style="fill: #1f77b4"/>
   </g>
   <g id="patch_231">
    <path d="M 567.506646 384.48 
L 569.093113 384.48 
L 569.093113 336.942629 
L 567.506646 336.942629 
z
" clip-path="url(#p1791707978)" style="fill: #1f77b4"/>
   </g>
   <g id="patch_232">
    <path d="M 569.489729 384.48 
L 571.076196 384.48 
L 571.076196 337.328641 
L 569.489729 337.328641 
z
" clip-path="url(#p1791707978)" style="fill: #1f77b4"/>
   </g>
   <g id="patch_233">
    <path d="M 571.472813 384.48 
L 573.059279 384.48 
L 573.059279 338.390174 
L 571.472813 338.390174 
z
" clip-path="url(#p1791707978)" style="fill: #1f77b4"/>
   </g>
   <g id="patch_234">
    <path d="M 573.455896 384.48 
L 575.042363 384.48 
L 575.042363 339.239401 
L 573.455896 339.239401 
z
" clip-path="url(#p1791707978)" style="fill: #1f77b4"/>
   </g>
   <g id="patch_235">
    <path d="M 575.438979 384.48 
L 577.025446 384.48 
L 577.025446 340.088627 
L 575.438979 340.088627 
z
" clip-path="url(#p1791707978)" style="fill: #1f77b4"/>
   </g>
   <g id="patch_236">
    <path d="M 577.422063 384.48 
L 579.008529 384.48 
L 579.008529 340.802749 
L 577.422063 340.802749 
z
" clip-path="url(#p1791707978)" style="fill: #1f77b4"/>
   </g>
   <g id="patch_237">
    <path d="M 579.405146 384.48 
L 580.991613 384.48 
L 580.991613 341.265963 
L 579.405146 341.265963 
z
" clip-path="url(#p1791707978)" style="fill: #1f77b4"/>
   </g>
   <g id="patch_238">
    <path d="M 581.388229 384.48 
L 582.974696 384.48 
L 582.974696 341.381767 
L 581.388229 341.381767 
z
" clip-path="url(#p1791707978)" style="fill: #1f77b4"/>
   </g>
   <g id="patch_239">
    <path d="M 583.371313 384.48 
L 584.95778 384.48 
L 584.95778 341.516871 
L 583.371313 341.516871 
z
" clip-path="url(#p1791707978)" style="fill: #1f77b4"/>
   </g>
   <g id="patch_240">
    <path d="M 585.354396 384.48 
L 586.940863 384.48 
L 586.940863 341.960785 
L 585.354396 341.960785 
z
" clip-path="url(#p1791707978)" style="fill: #1f77b4"/>
   </g>
   <g id="patch_241">
    <path d="M 587.33748 384.48 
L 588.923946 384.48 
L 588.923946 342.636306 
L 587.33748 342.636306 
z
" clip-path="url(#p1791707978)" style="fill: #1f77b4"/>
   </g>
   <g id="patch_242">
    <path d="M 589.320563 384.48 
L 590.90703 384.48 
L 590.90703 343.138121 
L 589.320563 343.138121 
z
" clip-path="url(#p1791707978)" style="fill: #1f77b4"/>
   </g>
   <g id="patch_243">
    <path d="M 591.303646 384.48 
L 592.890113 384.48 
L 592.890113 343.910145 
L 591.303646 343.910145 
z
" clip-path="url(#p1791707978)" style="fill: #1f77b4"/>
   </g>
   <g id="patch_244">
    <path d="M 593.28673 384.48 
L 594.873196 384.48 
L 594.873196 344.373359 
L 593.28673 344.373359 
z
" clip-path="url(#p1791707978)" style="fill: #1f77b4"/>
   </g>
   <g id="patch_245">
    <path d="M 595.269813 384.48 
L 596.85628 384.48 
L 596.85628 344.759371 
L 595.269813 344.759371 
z
" clip-path="url(#p1791707978)" style="fill: #1f77b4"/>
   </g>
   <g id="patch_246">
    <path d="M 597.252896 384.48 
L 598.839363 384.48 
L 598.839363 345.820904 
L 597.252896 345.820904 
z
" clip-path="url(#p1791707978)" style="fill: #1f77b4"/>
   </g>
   <g id="patch_247">
    <path d="M 599.23598 384.48 
L 600.822447 384.48 
L 600.822447 346.477124 
L 599.23598 346.477124 
z
" clip-path="url(#p1791707978)" style="fill: #1f77b4"/>
   </g>
   <g id="patch_248">
    <path d="M 601.219063 384.48 
L 602.80553 384.48 
L 602.80553 347.152645 
L 601.219063 347.152645 
z
" clip-path="url(#p1791707978)" style="fill: #1f77b4"/>
   </g>
   <g id="patch_249">
    <path d="M 603.202147 384.48 
L 604.788613 384.48 
L 604.788613 349.179208 
L 603.202147 349.179208 
z
" clip-path="url(#p1791707978)" style="fill: #1f77b4"/>
   </g>
   <g id="patch_250">
    <path d="M 605.18523 384.48 
L 606.771697 384.48 
L 606.771697 349.449416 
L 605.18523 349.449416 
z
" clip-path="url(#p1791707978)" style="fill: #1f77b4"/>
   </g>
   <g id="patch_251">
    <path d="M 607.168313 384.48 
L 608.75478 384.48 
L 608.75478 349.603821 
L 607.168313 349.603821 
z
" clip-path="url(#p1791707978)" style="fill: #1f77b4"/>
   </g>
   <g id="patch_252">
    <path d="M 609.151397 384.48 
L 610.737863 384.48 
L 610.737863 350.954863 
L 609.151397 350.954863 
z
" clip-path="url(#p1791707978)" style="fill: #1f77b4"/>
   </g>
   <g id="patch_253">
    <path d="M 611.13448 384.48 
L 612.720947 384.48 
L 612.720947 351.051366 
L 611.13448 351.051366 
z
" clip-path="url(#p1791707978)" style="fill: #1f77b4"/>
   </g>
   <g id="patch_254">
    <path d="M 613.117563 384.48 
L 614.70403 384.48 
L 614.70403 352.556812 
L 613.117563 352.556812 
z
" clip-path="url(#p1791707978)" style="fill: #1f77b4"/>
   </g>
   <g id="patch_255">
    <path d="M 615.100647 384.48 
L 616.687114 384.48 
L 616.687114 355.297497 
L 615.100647 355.297497 
z
" clip-path="url(#p1791707978)" style="fill: #1f77b4"/>
   </g>
   <g id="patch_256">
    <path d="M 617.08373 384.48 
L 618.670197 384.48 
L 618.670197 356.880146 
L 617.08373 356.880146 
z
" clip-path="url(#p1791707978)" style="fill: #1f77b4"/>
   </g>
   <g id="patch_257">
    <path d="M 619.066814 384.48 
L 620.65328 384.48 
L 620.65328 360.605161 
L 619.066814 360.605161 
z
" clip-path="url(#p1791707978)" style="fill: #1f77b4"/>
   </g>
   <g id="patch_258">
    <path d="M 621.049897 384.48 
L 622.636364 384.48 
L 622.636364 368.518406 
L 621.049897 368.518406 
z
" clip-path="url(#p1791707978)" style="fill: #1f77b4"/>
   </g>
   <g id="matplotlib.axis_1">
    <g id="text_1">
     <!-- 4-mer Combinations e.g. "CAGG" -->
     <g transform="translate(286.244531 396.078438) scale(0.1 -0.1)">
      <defs>
       <path id="DejaVuSans-34" d="M 2419 4116 
L 825 1625 
L 2419 1625 
L 2419 4116 
z
M 2253 4666 
L 3047 4666 
L 3047 1625 
L 3713 1625 
L 3713 1100 
L 3047 1100 
L 3047 0 
L 2419 0 
L 2419 1100 
L 313 1100 
L 313 1709 
L 2253 4666 
z
" transform="scale(0.015625)"/>
       <path id="DejaVuSans-2d" d="M 313 2009 
L 1997 2009 
L 1997 1497 
L 313 1497 
L 313 2009 
z
" transform="scale(0.015625)"/>
       <path id="DejaVuSans-6d" d="M 3328 2828 
Q 3544 3216 3844 3400 
Q 4144 3584 4550 3584 
Q 5097 3584 5394 3201 
Q 5691 2819 5691 2113 
L 5691 0 
L 5113 0 
L 5113 2094 
Q 5113 2597 4934 2840 
Q 4756 3084 4391 3084 
Q 3944 3084 3684 2787 
Q 3425 2491 3425 1978 
L 3425 0 
L 2847 0 
L 2847 2094 
Q 2847 2600 2669 2842 
Q 2491 3084 2119 3084 
Q 1678 3084 1418 2786 
Q 1159 2488 1159 1978 
L 1159 0 
L 581 0 
L 581 3500 
L 1159 3500 
L 1159 2956 
Q 1356 3278 1631 3431 
Q 1906 3584 2284 3584 
Q 2666 3584 2933 3390 
Q 3200 3197 3328 2828 
z
" transform="scale(0.015625)"/>
       <path id="DejaVuSans-65" d="M 3597 1894 
L 3597 1613 
L 953 1613 
Q 991 1019 1311 708 
Q 1631 397 2203 397 
Q 2534 397 2845 478 
Q 3156 559 3463 722 
L 3463 178 
Q 3153 47 2828 -22 
Q 2503 -91 2169 -91 
Q 1331 -91 842 396 
Q 353 884 353 1716 
Q 353 2575 817 3079 
Q 1281 3584 2069 3584 
Q 2775 3584 3186 3129 
Q 3597 2675 3597 1894 
z
M 3022 2063 
Q 3016 2534 2758 2815 
Q 2500 3097 2075 3097 
Q 1594 3097 1305 2825 
Q 1016 2553 972 2059 
L 3022 2063 
z
" transform="scale(0.015625)"/>
       <path id="DejaVuSans-72" d="M 2631 2963 
Q 2534 3019 2420 3045 
Q 2306 3072 2169 3072 
Q 1681 3072 1420 2755 
Q 1159 2438 1159 1844 
L 1159 0 
L 581 0 
L 581 3500 
L 1159 3500 
L 1159 2956 
Q 1341 3275 1631 3429 
Q 1922 3584 2338 3584 
Q 2397 3584 2469 3576 
Q 2541 3569 2628 3553 
L 2631 2963 
z
" transform="scale(0.015625)"/>
       <path id="DejaVuSans-20" transform="scale(0.015625)"/>
       <path id="DejaVuSans-43" d="M 4122 4306 
L 4122 3641 
Q 3803 3938 3442 4084 
Q 3081 4231 2675 4231 
Q 1875 4231 1450 3742 
Q 1025 3253 1025 2328 
Q 1025 1406 1450 917 
Q 1875 428 2675 428 
Q 3081 428 3442 575 
Q 3803 722 4122 1019 
L 4122 359 
Q 3791 134 3420 21 
Q 3050 -91 2638 -91 
Q 1578 -91 968 557 
Q 359 1206 359 2328 
Q 359 3453 968 4101 
Q 1578 4750 2638 4750 
Q 3056 4750 3426 4639 
Q 3797 4528 4122 4306 
z
" transform="scale(0.015625)"/>
       <path id="DejaVuSans-6f" d="M 1959 3097 
Q 1497 3097 1228 2736 
Q 959 2375 959 1747 
Q 959 1119 1226 758 
Q 1494 397 1959 397 
Q 2419 397 2687 759 
Q 2956 1122 2956 1747 
Q 2956 2369 2687 2733 
Q 2419 3097 1959 3097 
z
M 1959 3584 
Q 2709 3584 3137 3096 
Q 3566 2609 3566 1747 
Q 3566 888 3137 398 
Q 2709 -91 1959 -91 
Q 1206 -91 779 398 
Q 353 888 353 1747 
Q 353 2609 779 3096 
Q 1206 3584 1959 3584 
z
" transform="scale(0.015625)"/>
       <path id="DejaVuSans-62" d="M 3116 1747 
Q 3116 2381 2855 2742 
Q 2594 3103 2138 3103 
Q 1681 3103 1420 2742 
Q 1159 2381 1159 1747 
Q 1159 1113 1420 752 
Q 1681 391 2138 391 
Q 2594 391 2855 752 
Q 3116 1113 3116 1747 
z
M 1159 2969 
Q 1341 3281 1617 3432 
Q 1894 3584 2278 3584 
Q 2916 3584 3314 3078 
Q 3713 2572 3713 1747 
Q 3713 922 3314 415 
Q 2916 -91 2278 -91 
Q 1894 -91 1617 61 
Q 1341 213 1159 525 
L 1159 0 
L 581 0 
L 581 4863 
L 1159 4863 
L 1159 2969 
z
" transform="scale(0.015625)"/>
       <path id="DejaVuSans-69" d="M 603 3500 
L 1178 3500 
L 1178 0 
L 603 0 
L 603 3500 
z
M 603 4863 
L 1178 4863 
L 1178 4134 
L 603 4134 
L 603 4863 
z
" transform="scale(0.015625)"/>
       <path id="DejaVuSans-6e" d="M 3513 2113 
L 3513 0 
L 2938 0 
L 2938 2094 
Q 2938 2591 2744 2837 
Q 2550 3084 2163 3084 
Q 1697 3084 1428 2787 
Q 1159 2491 1159 1978 
L 1159 0 
L 581 0 
L 581 3500 
L 1159 3500 
L 1159 2956 
Q 1366 3272 1645 3428 
Q 1925 3584 2291 3584 
Q 2894 3584 3203 3211 
Q 3513 2838 3513 2113 
z
" transform="scale(0.015625)"/>
       <path id="DejaVuSans-61" d="M 2194 1759 
Q 1497 1759 1228 1600 
Q 959 1441 959 1056 
Q 959 750 1161 570 
Q 1363 391 1709 391 
Q 2188 391 2477 730 
Q 2766 1069 2766 1631 
L 2766 1759 
L 2194 1759 
z
M 3341 1997 
L 3341 0 
L 2766 0 
L 2766 531 
Q 2569 213 2275 61 
Q 1981 -91 1556 -91 
Q 1019 -91 701 211 
Q 384 513 384 1019 
Q 384 1609 779 1909 
Q 1175 2209 1959 2209 
L 2766 2209 
L 2766 2266 
Q 2766 2663 2505 2880 
Q 2244 3097 1772 3097 
Q 1472 3097 1187 3025 
Q 903 2953 641 2809 
L 641 3341 
Q 956 3463 1253 3523 
Q 1550 3584 1831 3584 
Q 2591 3584 2966 3190 
Q 3341 2797 3341 1997 
z
" transform="scale(0.015625)"/>
       <path id="DejaVuSans-74" d="M 1172 4494 
L 1172 3500 
L 2356 3500 
L 2356 3053 
L 1172 3053 
L 1172 1153 
Q 1172 725 1289 603 
Q 1406 481 1766 481 
L 2356 481 
L 2356 0 
L 1766 0 
Q 1100 0 847 248 
Q 594 497 594 1153 
L 594 3053 
L 172 3053 
L 172 3500 
L 594 3500 
L 594 4494 
L 1172 4494 
z
" transform="scale(0.015625)"/>
       <path id="DejaVuSans-73" d="M 2834 3397 
L 2834 2853 
Q 2591 2978 2328 3040 
Q 2066 3103 1784 3103 
Q 1356 3103 1142 2972 
Q 928 2841 928 2578 
Q 928 2378 1081 2264 
Q 1234 2150 1697 2047 
L 1894 2003 
Q 2506 1872 2764 1633 
Q 3022 1394 3022 966 
Q 3022 478 2636 193 
Q 2250 -91 1575 -91 
Q 1294 -91 989 -36 
Q 684 19 347 128 
L 347 722 
Q 666 556 975 473 
Q 1284 391 1588 391 
Q 1994 391 2212 530 
Q 2431 669 2431 922 
Q 2431 1156 2273 1281 
Q 2116 1406 1581 1522 
L 1381 1569 
Q 847 1681 609 1914 
Q 372 2147 372 2553 
Q 372 3047 722 3315 
Q 1072 3584 1716 3584 
Q 2034 3584 2315 3537 
Q 2597 3491 2834 3397 
z
" transform="scale(0.015625)"/>
       <path id="DejaVuSans-2e" d="M 684 794 
L 1344 794 
L 1344 0 
L 684 0 
L 684 794 
z
" transform="scale(0.015625)"/>
       <path id="DejaVuSans-67" d="M 2906 1791 
Q 2906 2416 2648 2759 
Q 2391 3103 1925 3103 
Q 1463 3103 1205 2759 
Q 947 2416 947 1791 
Q 947 1169 1205 825 
Q 1463 481 1925 481 
Q 2391 481 2648 825 
Q 2906 1169 2906 1791 
z
M 3481 434 
Q 3481 -459 3084 -895 
Q 2688 -1331 1869 -1331 
Q 1566 -1331 1297 -1286 
Q 1028 -1241 775 -1147 
L 775 -588 
Q 1028 -725 1275 -790 
Q 1522 -856 1778 -856 
Q 2344 -856 2625 -561 
Q 2906 -266 2906 331 
L 2906 616 
Q 2728 306 2450 153 
Q 2172 0 1784 0 
Q 1141 0 747 490 
Q 353 981 353 1791 
Q 353 2603 747 3093 
Q 1141 3584 1784 3584 
Q 2172 3584 2450 3431 
Q 2728 3278 2906 2969 
L 2906 3500 
L 3481 3500 
L 3481 434 
z
" transform="scale(0.015625)"/>
       <path id="DejaVuSans-22" d="M 1147 4666 
L 1147 2931 
L 616 2931 
L 616 4666 
L 1147 4666 
z
M 2328 4666 
L 2328 2931 
L 1797 2931 
L 1797 4666 
L 2328 4666 
z
" transform="scale(0.015625)"/>
       <path id="DejaVuSans-41" d="M 2188 4044 
L 1331 1722 
L 3047 1722 
L 2188 4044 
z
M 1831 4666 
L 2547 4666 
L 4325 0 
L 3669 0 
L 3244 1197 
L 1141 1197 
L 716 0 
L 50 0 
L 1831 4666 
z
" transform="scale(0.015625)"/>
       <path id="DejaVuSans-47" d="M 3809 666 
L 3809 1919 
L 2778 1919 
L 2778 2438 
L 4434 2438 
L 4434 434 
Q 4069 175 3628 42 
Q 3188 -91 2688 -91 
Q 1594 -91 976 548 
Q 359 1188 359 2328 
Q 359 3472 976 4111 
Q 1594 4750 2688 4750 
Q 3144 4750 3555 4637 
Q 3966 4525 4313 4306 
L 4313 3634 
Q 3963 3931 3569 4081 
Q 3175 4231 2741 4231 
Q 1884 4231 1454 3753 
Q 1025 3275 1025 2328 
Q 1025 1384 1454 906 
Q 1884 428 2741 428 
Q 3075 428 3337 486 
Q 3600 544 3809 666 
z
" transform="scale(0.015625)"/>
      </defs>
      <use xlink:href="#DejaVuSans-34"/>
      <use xlink:href="#DejaVuSans-2d" x="63.623047"/>
      <use xlink:href="#DejaVuSans-6d" x="99.707031"/>
      <use xlink:href="#DejaVuSans-65" x="197.119141"/>
      <use xlink:href="#DejaVuSans-72" x="258.642578"/>
      <use xlink:href="#DejaVuSans-20" x="299.755859"/>
      <use xlink:href="#DejaVuSans-43" x="331.542969"/>
      <use xlink:href="#DejaVuSans-6f" x="401.367188"/>
      <use xlink:href="#DejaVuSans-6d" x="462.548828"/>
      <use xlink:href="#DejaVuSans-62" x="559.960938"/>
      <use xlink:href="#DejaVuSans-69" x="623.4375"/>
      <use xlink:href="#DejaVuSans-6e" x="651.220703"/>
      <use xlink:href="#DejaVuSans-61" x="714.599609"/>
      <use xlink:href="#DejaVuSans-74" x="775.878906"/>
      <use xlink:href="#DejaVuSans-69" x="815.087891"/>
      <use xlink:href="#DejaVuSans-6f" x="842.871094"/>
      <use xlink:href="#DejaVuSans-6e" x="904.052734"/>
      <use xlink:href="#DejaVuSans-73" x="967.431641"/>
      <use xlink:href="#DejaVuSans-20" x="1019.53125"/>
      <use xlink:href="#DejaVuSans-65" x="1051.318359"/>
      <use xlink:href="#DejaVuSans-2e" x="1112.841797"/>
      <use xlink:href="#DejaVuSans-67" x="1144.628906"/>
      <use xlink:href="#DejaVuSans-2e" x="1208.105469"/>
      <use xlink:href="#DejaVuSans-20" x="1239.892578"/>
      <use xlink:href="#DejaVuSans-22" x="1271.679688"/>
      <use xlink:href="#DejaVuSans-43" x="1317.675781"/>
      <use xlink:href="#DejaVuSans-41" x="1387.5"/>
      <use xlink:href="#DejaVuSans-47" x="1454.158203"/>
      <use xlink:href="#DejaVuSans-47" x="1531.648438"/>
      <use xlink:href="#DejaVuSans-22" x="1609.138672"/>
     </g>
    </g>
   </g>
   <g id="matplotlib.axis_2">
    <g id="ytick_1">
     <g id="line2d_1">
      <defs>
       <path id="m4876bde679" d="M 0 0 
L -3.5 0 
" style="stroke: #000000; stroke-width: 0.8"/>
      </defs>
      <g>
       <use xlink:href="#m4876bde679" x="90" y="384.48" style="stroke: #000000; stroke-width: 0.8"/>
      </g>
     </g>
     <g id="text_2">
      <!-- 0 -->
      <g transform="translate(76.6375 388.279219) scale(0.1 -0.1)">
       <defs>
        <path id="DejaVuSans-30" d="M 2034 4250 
Q 1547 4250 1301 3770 
Q 1056 3291 1056 2328 
Q 1056 1369 1301 889 
Q 1547 409 2034 409 
Q 2525 409 2770 889 
Q 3016 1369 3016 2328 
Q 3016 3291 2770 3770 
Q 2525 4250 2034 4250 
z
M 2034 4750 
Q 2819 4750 3233 4129 
Q 3647 3509 3647 2328 
Q 3647 1150 3233 529 
Q 2819 -91 2034 -91 
Q 1250 -91 836 529 
Q 422 1150 422 2328 
Q 422 3509 836 4129 
Q 1250 4750 2034 4750 
z
" transform="scale(0.015625)"/>
       </defs>
       <use xlink:href="#DejaVuSans-30"/>
      </g>
     </g>
    </g>
    <g id="ytick_2">
     <g id="line2d_2">
      <g>
       <use xlink:href="#m4876bde679" x="90" y="345.878806" style="stroke: #000000; stroke-width: 0.8"/>
      </g>
     </g>
     <g id="text_3">
      <!-- 2000 -->
      <g transform="translate(57.55 349.678025) scale(0.1 -0.1)">
       <defs>
        <path id="DejaVuSans-32" d="M 1228 531 
L 3431 531 
L 3431 0 
L 469 0 
L 469 531 
Q 828 903 1448 1529 
Q 2069 2156 2228 2338 
Q 2531 2678 2651 2914 
Q 2772 3150 2772 3378 
Q 2772 3750 2511 3984 
Q 2250 4219 1831 4219 
Q 1534 4219 1204 4116 
Q 875 4013 500 3803 
L 500 4441 
Q 881 4594 1212 4672 
Q 1544 4750 1819 4750 
Q 2544 4750 2975 4387 
Q 3406 4025 3406 3419 
Q 3406 3131 3298 2873 
Q 3191 2616 2906 2266 
Q 2828 2175 2409 1742 
Q 1991 1309 1228 531 
z
" transform="scale(0.015625)"/>
       </defs>
       <use xlink:href="#DejaVuSans-32"/>
       <use xlink:href="#DejaVuSans-30" x="63.623047"/>
       <use xlink:href="#DejaVuSans-30" x="127.246094"/>
       <use xlink:href="#DejaVuSans-30" x="190.869141"/>
      </g>
     </g>
    </g>
    <g id="ytick_3">
     <g id="line2d_3">
      <g>
       <use xlink:href="#m4876bde679" x="90" y="307.277612" style="stroke: #000000; stroke-width: 0.8"/>
      </g>
     </g>
     <g id="text_4">
      <!-- 4000 -->
      <g transform="translate(57.55 311.076831) scale(0.1 -0.1)">
       <use xlink:href="#DejaVuSans-34"/>
       <use xlink:href="#DejaVuSans-30" x="63.623047"/>
       <use xlink:href="#DejaVuSans-30" x="127.246094"/>
       <use xlink:href="#DejaVuSans-30" x="190.869141"/>
      </g>
     </g>
    </g>
    <g id="ytick_4">
     <g id="line2d_4">
      <g>
       <use xlink:href="#m4876bde679" x="90" y="268.676418" style="stroke: #000000; stroke-width: 0.8"/>
      </g>
     </g>
     <g id="text_5">
      <!-- 6000 -->
      <g transform="translate(57.55 272.475636) scale(0.1 -0.1)">
       <defs>
        <path id="DejaVuSans-36" d="M 2113 2584 
Q 1688 2584 1439 2293 
Q 1191 2003 1191 1497 
Q 1191 994 1439 701 
Q 1688 409 2113 409 
Q 2538 409 2786 701 
Q 3034 994 3034 1497 
Q 3034 2003 2786 2293 
Q 2538 2584 2113 2584 
z
M 3366 4563 
L 3366 3988 
Q 3128 4100 2886 4159 
Q 2644 4219 2406 4219 
Q 1781 4219 1451 3797 
Q 1122 3375 1075 2522 
Q 1259 2794 1537 2939 
Q 1816 3084 2150 3084 
Q 2853 3084 3261 2657 
Q 3669 2231 3669 1497 
Q 3669 778 3244 343 
Q 2819 -91 2113 -91 
Q 1303 -91 875 529 
Q 447 1150 447 2328 
Q 447 3434 972 4092 
Q 1497 4750 2381 4750 
Q 2619 4750 2861 4703 
Q 3103 4656 3366 4563 
z
" transform="scale(0.015625)"/>
       </defs>
       <use xlink:href="#DejaVuSans-36"/>
       <use xlink:href="#DejaVuSans-30" x="63.623047"/>
       <use xlink:href="#DejaVuSans-30" x="127.246094"/>
       <use xlink:href="#DejaVuSans-30" x="190.869141"/>
      </g>
     </g>
    </g>
    <g id="ytick_5">
     <g id="line2d_5">
      <g>
       <use xlink:href="#m4876bde679" x="90" y="230.075224" style="stroke: #000000; stroke-width: 0.8"/>
      </g>
     </g>
     <g id="text_6">
      <!-- 8000 -->
      <g transform="translate(57.55 233.874442) scale(0.1 -0.1)">
       <defs>
        <path id="DejaVuSans-38" d="M 2034 2216 
Q 1584 2216 1326 1975 
Q 1069 1734 1069 1313 
Q 1069 891 1326 650 
Q 1584 409 2034 409 
Q 2484 409 2743 651 
Q 3003 894 3003 1313 
Q 3003 1734 2745 1975 
Q 2488 2216 2034 2216 
z
M 1403 2484 
Q 997 2584 770 2862 
Q 544 3141 544 3541 
Q 544 4100 942 4425 
Q 1341 4750 2034 4750 
Q 2731 4750 3128 4425 
Q 3525 4100 3525 3541 
Q 3525 3141 3298 2862 
Q 3072 2584 2669 2484 
Q 3125 2378 3379 2068 
Q 3634 1759 3634 1313 
Q 3634 634 3220 271 
Q 2806 -91 2034 -91 
Q 1263 -91 848 271 
Q 434 634 434 1313 
Q 434 1759 690 2068 
Q 947 2378 1403 2484 
z
M 1172 3481 
Q 1172 3119 1398 2916 
Q 1625 2713 2034 2713 
Q 2441 2713 2670 2916 
Q 2900 3119 2900 3481 
Q 2900 3844 2670 4047 
Q 2441 4250 2034 4250 
Q 1625 4250 1398 4047 
Q 1172 3844 1172 3481 
z
" transform="scale(0.015625)"/>
       </defs>
       <use xlink:href="#DejaVuSans-38"/>
       <use xlink:href="#DejaVuSans-30" x="63.623047"/>
       <use xlink:href="#DejaVuSans-30" x="127.246094"/>
       <use xlink:href="#DejaVuSans-30" x="190.869141"/>
      </g>
     </g>
    </g>
    <g id="ytick_6">
     <g id="line2d_6">
      <g>
       <use xlink:href="#m4876bde679" x="90" y="191.474029" style="stroke: #000000; stroke-width: 0.8"/>
      </g>
     </g>
     <g id="text_7">
      <!-- 10000 -->
      <g transform="translate(51.1875 195.273248) scale(0.1 -0.1)">
       <defs>
        <path id="DejaVuSans-31" d="M 794 531 
L 1825 531 
L 1825 4091 
L 703 3866 
L 703 4441 
L 1819 4666 
L 2450 4666 
L 2450 531 
L 3481 531 
L 3481 0 
L 794 0 
L 794 531 
z
" transform="scale(0.015625)"/>
       </defs>
       <use xlink:href="#DejaVuSans-31"/>
       <use xlink:href="#DejaVuSans-30" x="63.623047"/>
       <use xlink:href="#DejaVuSans-30" x="127.246094"/>
       <use xlink:href="#DejaVuSans-30" x="190.869141"/>
       <use xlink:href="#DejaVuSans-30" x="254.492188"/>
      </g>
     </g>
    </g>
    <g id="ytick_7">
     <g id="line2d_7">
      <g>
       <use xlink:href="#m4876bde679" x="90" y="152.872835" style="stroke: #000000; stroke-width: 0.8"/>
      </g>
     </g>
     <g id="text_8">
      <!-- 12000 -->
      <g transform="translate(51.1875 156.672054) scale(0.1 -0.1)">
       <use xlink:href="#DejaVuSans-31"/>
       <use xlink:href="#DejaVuSans-32" x="63.623047"/>
       <use xlink:href="#DejaVuSans-30" x="127.246094"/>
       <use xlink:href="#DejaVuSans-30" x="190.869141"/>
       <use xlink:href="#DejaVuSans-30" x="254.492188"/>
      </g>
     </g>
    </g>
    <g id="ytick_8">
     <g id="line2d_8">
      <g>
       <use xlink:href="#m4876bde679" x="90" y="114.271641" style="stroke: #000000; stroke-width: 0.8"/>
      </g>
     </g>
     <g id="text_9">
      <!-- 14000 -->
      <g transform="translate(51.1875 118.07086) scale(0.1 -0.1)">
       <use xlink:href="#DejaVuSans-31"/>
       <use xlink:href="#DejaVuSans-34" x="63.623047"/>
       <use xlink:href="#DejaVuSans-30" x="127.246094"/>
       <use xlink:href="#DejaVuSans-30" x="190.869141"/>
       <use xlink:href="#DejaVuSans-30" x="254.492188"/>
      </g>
     </g>
    </g>
    <g id="ytick_9">
     <g id="line2d_9">
      <g>
       <use xlink:href="#m4876bde679" x="90" y="75.670447" style="stroke: #000000; stroke-width: 0.8"/>
      </g>
     </g>
     <g id="text_10">
      <!-- 16000 -->
      <g transform="translate(51.1875 79.469666) scale(0.1 -0.1)">
       <use xlink:href="#DejaVuSans-31"/>
       <use xlink:href="#DejaVuSans-36" x="63.623047"/>
       <use xlink:href="#DejaVuSans-30" x="127.246094"/>
       <use xlink:href="#DejaVuSans-30" x="190.869141"/>
       <use xlink:href="#DejaVuSans-30" x="254.492188"/>
      </g>
     </g>
    </g>
    <g id="text_11">
     <!-- Count -->
     <g transform="translate(45.107812 233.008437) rotate(-90) scale(0.1 -0.1)">
      <defs>
       <path id="DejaVuSans-75" d="M 544 1381 
L 544 3500 
L 1119 3500 
L 1119 1403 
Q 1119 906 1312 657 
Q 1506 409 1894 409 
Q 2359 409 2629 706 
Q 2900 1003 2900 1516 
L 2900 3500 
L 3475 3500 
L 3475 0 
L 2900 0 
L 2900 538 
Q 2691 219 2414 64 
Q 2138 -91 1772 -91 
Q 1169 -91 856 284 
Q 544 659 544 1381 
z
M 1991 3584 
L 1991 3584 
z
" transform="scale(0.015625)"/>
      </defs>
      <use xlink:href="#DejaVuSans-43"/>
      <use xlink:href="#DejaVuSans-6f" x="69.824219"/>
      <use xlink:href="#DejaVuSans-75" x="131.005859"/>
      <use xlink:href="#DejaVuSans-6e" x="194.384766"/>
      <use xlink:href="#DejaVuSans-74" x="257.763672"/>
     </g>
    </g>
   </g>
   <g id="patch_259">
    <path d="M 90 384.48 
L 90 51.84 
" style="fill: none; stroke: #000000; stroke-width: 0.8; stroke-linejoin: miter; stroke-linecap: square"/>
   </g>
   <g id="patch_260">
    <path d="M 648 384.48 
L 648 51.84 
" style="fill: none; stroke: #000000; stroke-width: 0.8; stroke-linejoin: miter; stroke-linecap: square"/>
   </g>
   <g id="patch_261">
    <path d="M 90 384.48 
L 648 384.48 
" style="fill: none; stroke: #000000; stroke-width: 0.8; stroke-linejoin: miter; stroke-linecap: square"/>
   </g>
   <g id="patch_262">
    <path d="M 90 51.84 
L 648 51.84 
" style="fill: none; stroke: #000000; stroke-width: 0.8; stroke-linejoin: miter; stroke-linecap: square"/>
   </g>
   <g id="text_12">
    <!-- 4-mer Counts in the Class 6 Proteins of Human DNA -->
    <g transform="translate(213.201562 45.84) scale(0.12 -0.12)">
     <defs>
      <path id="DejaVuSans-68" d="M 3513 2113 
L 3513 0 
L 2938 0 
L 2938 2094 
Q 2938 2591 2744 2837 
Q 2550 3084 2163 3084 
Q 1697 3084 1428 2787 
Q 1159 2491 1159 1978 
L 1159 0 
L 581 0 
L 581 4863 
L 1159 4863 
L 1159 2956 
Q 1366 3272 1645 3428 
Q 1925 3584 2291 3584 
Q 2894 3584 3203 3211 
Q 3513 2838 3513 2113 
z
" transform="scale(0.015625)"/>
      <path id="DejaVuSans-6c" d="M 603 4863 
L 1178 4863 
L 1178 0 
L 603 0 
L 603 4863 
z
" transform="scale(0.015625)"/>
      <path id="DejaVuSans-50" d="M 1259 4147 
L 1259 2394 
L 2053 2394 
Q 2494 2394 2734 2622 
Q 2975 2850 2975 3272 
Q 2975 3691 2734 3919 
Q 2494 4147 2053 4147 
L 1259 4147 
z
M 628 4666 
L 2053 4666 
Q 2838 4666 3239 4311 
Q 3641 3956 3641 3272 
Q 3641 2581 3239 2228 
Q 2838 1875 2053 1875 
L 1259 1875 
L 1259 0 
L 628 0 
L 628 4666 
z
" transform="scale(0.015625)"/>
      <path id="DejaVuSans-66" d="M 2375 4863 
L 2375 4384 
L 1825 4384 
Q 1516 4384 1395 4259 
Q 1275 4134 1275 3809 
L 1275 3500 
L 2222 3500 
L 2222 3053 
L 1275 3053 
L 1275 0 
L 697 0 
L 697 3053 
L 147 3053 
L 147 3500 
L 697 3500 
L 697 3744 
Q 697 4328 969 4595 
Q 1241 4863 1831 4863 
L 2375 4863 
z
" transform="scale(0.015625)"/>
      <path id="DejaVuSans-48" d="M 628 4666 
L 1259 4666 
L 1259 2753 
L 3553 2753 
L 3553 4666 
L 4184 4666 
L 4184 0 
L 3553 0 
L 3553 2222 
L 1259 2222 
L 1259 0 
L 628 0 
L 628 4666 
z
" transform="scale(0.015625)"/>
      <path id="DejaVuSans-44" d="M 1259 4147 
L 1259 519 
L 2022 519 
Q 2988 519 3436 956 
Q 3884 1394 3884 2338 
Q 3884 3275 3436 3711 
Q 2988 4147 2022 4147 
L 1259 4147 
z
M 628 4666 
L 1925 4666 
Q 3281 4666 3915 4102 
Q 4550 3538 4550 2338 
Q 4550 1131 3912 565 
Q 3275 0 1925 0 
L 628 0 
L 628 4666 
z
" transform="scale(0.015625)"/>
      <path id="DejaVuSans-4e" d="M 628 4666 
L 1478 4666 
L 3547 763 
L 3547 4666 
L 4159 4666 
L 4159 0 
L 3309 0 
L 1241 3903 
L 1241 0 
L 628 0 
L 628 4666 
z
" transform="scale(0.015625)"/>
     </defs>
     <use xlink:href="#DejaVuSans-34"/>
     <use xlink:href="#DejaVuSans-2d" x="63.623047"/>
     <use xlink:href="#DejaVuSans-6d" x="99.707031"/>
     <use xlink:href="#DejaVuSans-65" x="197.119141"/>
     <use xlink:href="#DejaVuSans-72" x="258.642578"/>
     <use xlink:href="#DejaVuSans-20" x="299.755859"/>
     <use xlink:href="#DejaVuSans-43" x="331.542969"/>
     <use xlink:href="#DejaVuSans-6f" x="401.367188"/>
     <use xlink:href="#DejaVuSans-75" x="462.548828"/>
     <use xlink:href="#DejaVuSans-6e" x="525.927734"/>
     <use xlink:href="#DejaVuSans-74" x="589.306641"/>
     <use xlink:href="#DejaVuSans-73" x="628.515625"/>
     <use xlink:href="#DejaVuSans-20" x="680.615234"/>
     <use xlink:href="#DejaVuSans-69" x="712.402344"/>
     <use xlink:href="#DejaVuSans-6e" x="740.185547"/>
     <use xlink:href="#DejaVuSans-20" x="803.564453"/>
     <use xlink:href="#DejaVuSans-74" x="835.351562"/>
     <use xlink:href="#DejaVuSans-68" x="874.560547"/>
     <use xlink:href="#DejaVuSans-65" x="937.939453"/>
     <use xlink:href="#DejaVuSans-20" x="999.462891"/>
     <use xlink:href="#DejaVuSans-43" x="1031.25"/>
     <use xlink:href="#DejaVuSans-6c" x="1101.074219"/>
     <use xlink:href="#DejaVuSans-61" x="1128.857422"/>
     <use xlink:href="#DejaVuSans-73" x="1190.136719"/>
     <use xlink:href="#DejaVuSans-73" x="1242.236328"/>
     <use xlink:href="#DejaVuSans-20" x="1294.335938"/>
     <use xlink:href="#DejaVuSans-36" x="1326.123047"/>
     <use xlink:href="#DejaVuSans-20" x="1389.746094"/>
     <use xlink:href="#DejaVuSans-50" x="1421.533203"/>
     <use xlink:href="#DejaVuSans-72" x="1480.085938"/>
     <use xlink:href="#DejaVuSans-6f" x="1518.949219"/>
     <use xlink:href="#DejaVuSans-74" x="1580.130859"/>
     <use xlink:href="#DejaVuSans-65" x="1619.339844"/>
     <use xlink:href="#DejaVuSans-69" x="1680.863281"/>
     <use xlink:href="#DejaVuSans-6e" x="1708.646484"/>
     <use xlink:href="#DejaVuSans-73" x="1772.025391"/>
     <use xlink:href="#DejaVuSans-20" x="1824.125"/>
     <use xlink:href="#DejaVuSans-6f" x="1855.912109"/>
     <use xlink:href="#DejaVuSans-66" x="1917.09375"/>
     <use xlink:href="#DejaVuSans-20" x="1952.298828"/>
     <use xlink:href="#DejaVuSans-48" x="1984.085938"/>
     <use xlink:href="#DejaVuSans-75" x="2059.28125"/>
     <use xlink:href="#DejaVuSans-6d" x="2122.660156"/>
     <use xlink:href="#DejaVuSans-61" x="2220.072266"/>
     <use xlink:href="#DejaVuSans-6e" x="2281.351562"/>
     <use xlink:href="#DejaVuSans-20" x="2344.730469"/>
     <use xlink:href="#DejaVuSans-44" x="2376.517578"/>
     <use xlink:href="#DejaVuSans-4e" x="2453.519531"/>
     <use xlink:href="#DejaVuSans-41" x="2528.324219"/>
    </g>
   </g>
  </g>
 </g>
 <defs>
  <clipPath id="p1791707978">
   <rect x="90" y="51.84" width="558" height="332.64"/>
  </clipPath>
 </defs>
</svg>
